<svg data-v-423bf9ae="" xmlns="http://www.w3.org/2000/svg" viewBox="0 0 664 90" class="iconLeftSlogan"><!----><!----><!----><g data-v-423bf9ae="" id="7908b7ca-e149-404f-bb69-f6912513bf5d" fill="white" transform="matrix(5.714285714285714,0,0,5.714285714285714,105.371415742806,-1.1999991238117218)"><path d="M2.66 10.50L2.66 0.21L0.81 0.77L0.81 10.50ZM10.82 7.38C10.82 7.34 10.84 6.93 10.84 6.61C10.84 4.27 9.34 3.01 7.39 3.01C5.49 3.01 3.86 4.26 3.86 6.86C3.86 9.46 5.47 10.71 7.39 10.71C9.09 10.71 10.21 9.95 10.71 8.46L8.99 8.09C8.79 8.75 8.23 9.17 7.50 9.17C6.54 9.17 5.78 8.61 5.71 7.38ZM7.35 4.55C8.27 4.55 8.89 5.17 8.95 6.08L5.74 6.08C5.87 5.07 6.61 4.55 7.35 4.55ZM16.30 9.70C16.34 9.97 16.41 10.32 16.62 10.50L18.48 10.50C18.23 10.23 18.06 9.76 18.06 9.02L18.06 6.02C18.06 3.89 16.90 3.01 15.02 3.01C13.65 3.01 12.25 3.53 11.89 5.21L13.50 5.70C13.66 5.04 14.07 4.51 14.91 4.51C15.82 4.51 16.21 5.04 16.21 5.73L16.21 5.92C15.85 6.09 15.29 6.19 14.52 6.27C12.80 6.47 11.66 7.07 11.66 8.64C11.66 10.02 12.78 10.71 14.11 10.71C14.98 10.71 15.67 10.46 16.30 9.70ZM16.21 8.30C15.93 8.79 15.25 9.31 14.50 9.31C13.89 9.31 13.54 9.02 13.54 8.51C13.51 7.81 14.08 7.60 14.76 7.48C15.47 7.34 15.95 7.21 16.21 7.10ZM21.62 10.50L21.62 7.06C21.62 5.64 22.22 4.75 23.42 4.75C23.86 4.75 24.15 4.87 24.43 5.03L24.77 3.39C24.43 3.12 24.04 3.01 23.48 3.01C22.47 3.01 21.95 3.50 21.49 4.48L21.49 3.22L19.77 3.22L19.77 10.50ZM27.54 10.50L27.54 6.54C27.54 5.24 28.20 4.56 29.05 4.56C29.95 4.56 30.28 5.12 30.28 6.09L30.28 10.50L32.13 10.50L32.13 6.03C32.13 4.30 31.54 3.01 29.53 3.01C28.62 3.01 27.94 3.37 27.41 4.27L27.41 3.22L25.69 3.22L25.69 10.50ZM36.97 10.50L38.39 5.40L39.69 10.50L41.36 10.50L43.62 3.22L41.85 3.22L40.47 8.25L39.20 3.22L37.53 3.22L36.23 8.40L34.94 3.22L33.08 3.22L35.28 10.50ZM46.42 2.18L46.42 0.42L44.58 0.42L44.58 2.18ZM46.42 10.50L46.42 3.22L44.58 3.22L44.58 10.50ZM51.63 8.95C51.41 9.02 51.20 9.03 51.06 9.03C50.40 9.03 50.40 8.58 50.40 7.95L50.40 4.68L51.74 4.68L51.74 3.22L50.40 3.22L50.40 0.99L48.55 1.60L48.55 3.22L47.52 3.22L47.52 4.68L48.55 4.68L48.55 8.37C48.55 9.80 49.03 10.64 50.55 10.64C50.82 10.64 51.48 10.57 51.76 10.43ZM55.01 10.50L55.01 6.54C55.01 5.24 55.66 4.56 56.52 4.56C57.41 4.56 57.75 5.12 57.75 6.09L57.75 10.50L59.60 10.50L59.60 6.03C59.60 4.30 59.01 3.01 56.99 3.01C56.08 3.01 55.47 3.36 55.01 4.16L55.01 0.42L53.16 0.42L53.16 10.50ZM68.98 10.50L68.98 8.96L61.19 8.96L61.19 10.50ZM72.42 10.50L72.42 7.06C72.42 5.64 73.02 4.75 74.23 4.75C74.66 4.75 74.96 4.87 75.24 5.03L75.57 3.39C75.24 3.12 74.84 3.01 74.28 3.01C73.28 3.01 72.76 3.50 72.30 4.48L72.30 3.22L70.57 3.22L70.57 10.50ZM75.94 6.86C75.94 9.46 77.52 10.71 79.48 10.71C81.45 10.71 83.03 9.46 83.03 6.86C83.03 4.26 81.45 3.01 79.48 3.01C77.52 3.01 75.94 4.26 75.94 6.86ZM77.78 6.86C77.78 5.32 78.47 4.55 79.48 4.55C80.49 4.55 81.19 5.32 81.19 6.86C81.19 8.41 80.49 9.17 79.48 9.17C78.47 9.17 77.78 8.41 77.78 6.86ZM83.82 8.40C83.94 9.77 85.06 10.71 86.84 10.71C88.49 10.71 89.84 9.98 89.84 8.37C89.84 6.92 88.79 6.41 87.96 6.22L86.20 5.81C85.82 5.73 85.57 5.52 85.57 5.21C85.57 4.69 86.06 4.45 86.77 4.45C87.42 4.45 87.93 4.72 88.05 5.38L89.64 5.11C89.57 3.96 88.56 3.01 86.83 3.01C85.33 3.01 83.97 3.65 83.97 5.28C83.97 6.48 84.80 7.10 85.75 7.32L87.50 7.73C87.92 7.84 88.19 8.04 88.19 8.44C88.19 9.10 87.50 9.27 86.88 9.27C85.97 9.27 85.50 8.81 85.41 8.13L83.82 8.40ZM97.58 7.38C97.58 7.34 97.59 6.93 97.59 6.61C97.59 4.27 96.10 3.01 94.15 3.01C92.25 3.01 90.62 4.26 90.62 6.86C90.62 9.46 92.23 10.71 94.15 10.71C95.84 10.71 96.96 9.95 97.47 8.46L95.75 8.09C95.55 8.75 94.99 9.17 94.26 9.17C93.30 9.17 92.54 8.61 92.47 7.38ZM94.11 4.55C95.03 4.55 95.65 5.17 95.70 6.08L92.50 6.08C92.62 5.07 93.37 4.55 94.11 4.55Z"></path></g><!----><g data-v-423bf9ae="" id="97625389-bb2c-471f-b12a-1321882bb142" transform="matrix(2.8125,0,0,2.8125,0,0)" stroke="none" fill="white"><path d="M11.579 32H32L21.789 14.314z"></path><circle cx="8.683" cy="8.683" r="8.683"></circle></g><!----><g data-v-423bf9ae="" id="0bfe35a0-5ce5-4797-a9f1-335a27d19f2a" fill="white" transform="matrix(0.8981563873640288,0,0,0.8981563873640288,108.98508602837504,58.113873201629325)"><path d="M7.95 3.22L7.95 2.21L1.13 2.21L1.13 11.48L7.95 11.48L7.95 10.47L2.18 10.47L2.18 7.35L7.34 7.35L7.34 6.33L2.18 6.33L2.18 3.22ZM24.44 2.21L21.18 6.61L17.86 2.21L16.65 2.21L16.65 11.48L17.70 11.48L17.70 3.81L21.18 8.22L24.61 3.81L24.61 11.48L25.66 11.48L25.66 2.21ZM35.98 8.18L39.10 8.18C41.08 8.18 42.29 7.03 42.29 5.19C42.29 3.37 41.08 2.21 39.10 2.21L34.93 2.21L34.93 11.48L35.98 11.48ZM39.03 3.21C40.49 3.21 41.24 3.96 41.24 5.19C41.24 6.44 40.49 7.20 39.03 7.20L35.98 7.20L35.98 3.21ZM54.84 2.10C52.02 2.10 50.13 4.21 50.13 6.85C50.13 9.48 52.02 11.59 54.84 11.59C57.65 11.59 59.54 9.48 59.54 6.85C59.54 4.21 57.65 2.10 54.84 2.10ZM54.84 10.57C52.58 10.57 51.18 8.93 51.18 6.85C51.18 4.76 52.58 3.12 54.84 3.12C57.09 3.12 58.49 4.76 58.49 6.85C58.49 8.93 57.09 10.57 54.84 10.57ZM73.70 3.70L76.20 11.48L77.39 11.48L80.28 2.21L79.17 2.21L76.79 10.00L74.30 2.21L73.09 2.21L70.60 10.00L68.22 2.21L67.12 2.21L70.00 11.48L71.19 11.48ZM95.35 3.22L95.35 2.21L88.54 2.21L88.54 11.48L95.35 11.48L95.35 10.47L89.59 10.47L89.59 7.35L94.74 7.35L94.74 6.33L89.59 6.33L89.59 3.22ZM105.10 7.92L108.32 7.92L110.56 11.48L111.80 11.48L109.37 7.74C110.40 7.50 111.61 6.90 111.61 5.11C111.61 3.35 110.39 2.21 108.49 2.21L104.05 2.21L104.05 11.48L105.10 11.48ZM105.10 3.21L108.36 3.21C109.68 3.21 110.56 3.93 110.56 5.11C110.56 6.55 109.30 6.93 108.30 6.93L105.10 6.93ZM121.46 2.21L120.41 2.21L120.41 11.48L121.46 11.48ZM137.68 2.21L137.68 10.01L131.95 2.21L130.73 2.21L130.73 11.48L131.78 11.48L131.78 3.65L137.51 11.48L138.73 11.48L138.73 2.21ZM151.97 2.10C149.18 2.10 147.41 4.21 147.41 6.85C147.41 9.48 149.11 11.59 151.94 11.59C153.62 11.59 154.71 10.74 155.30 9.84L155.30 11.48L156.27 11.48L156.27 6.55L151.91 6.55L151.91 7.50L155.30 7.50C155.30 9.44 153.71 10.57 152.03 10.57C149.77 10.57 148.46 8.93 148.46 6.85C148.46 4.76 149.80 3.12 152.05 3.12C153.47 3.12 154.48 3.74 155.04 4.73L156.18 4.73C155.50 3.18 153.96 2.10 151.97 2.10ZM182.90 2.21L179.63 6.61L176.32 2.21L175.10 2.21L175.10 11.48L176.15 11.48L176.15 3.81L179.63 8.22L183.06 3.81L183.06 11.48L184.11 11.48L184.11 2.21ZM194.43 2.21L193.38 2.21L193.38 11.48L194.43 11.48ZM210.64 2.21L210.64 10.01L204.92 2.21L203.70 2.21L203.70 11.48L204.75 11.48L204.75 3.65L210.48 11.48L211.69 11.48L211.69 2.21ZM224.87 2.21L220.96 2.21L220.96 11.48L224.87 11.48C227.08 11.48 229.12 9.74 229.12 6.85C229.12 3.95 227.08 2.21 224.87 2.21ZM224.83 10.49L222.01 10.49L222.01 3.21L224.83 3.21C226.80 3.21 228.07 4.86 228.07 6.85C228.07 8.83 226.80 10.49 224.83 10.49ZM238.43 4.65C238.43 4.03 238.80 3.08 240.90 3.08C242.59 3.08 243.38 3.82 243.49 4.75L244.57 4.75C244.48 3.36 243.36 2.10 240.90 2.10C238.57 2.10 237.41 3.15 237.41 4.66C237.41 7.84 243.75 6.69 243.75 8.96C243.75 10.05 242.77 10.60 241.21 10.60C239.60 10.60 238.29 10.05 238.22 8.71L237.13 8.71C237.27 10.37 238.39 11.59 241.14 11.59C243.42 11.59 244.80 10.64 244.80 8.92C244.80 5.68 238.43 6.80 238.43 4.65ZM252.45 13.34L253.40 13.34L254.63 10.36L253.26 10.36ZM280.31 3.22L280.31 2.21L273.49 2.21L273.49 11.48L280.31 11.48L280.31 10.47L274.54 10.47L274.54 7.35L279.69 7.35L279.69 6.33L274.54 6.33L274.54 3.22ZM295.95 2.21L295.95 10.01L290.22 2.21L289.00 2.21L289.00 11.48L290.05 11.48L290.05 3.65L295.78 11.48L297.00 11.48L297.00 2.21ZM307.31 7.92L310.53 7.92L312.77 11.48L314.02 11.48L311.58 7.74C312.62 7.50 313.82 6.90 313.82 5.11C313.82 3.35 312.61 2.21 310.70 2.21L306.26 2.21L306.26 11.48L307.31 11.48ZM307.31 3.21L310.58 3.21C311.89 3.21 312.77 3.93 312.77 5.11C312.77 6.55 311.51 6.93 310.52 6.93L307.31 6.93ZM323.68 2.21L322.63 2.21L322.63 11.48L323.68 11.48ZM336.92 10.57C334.67 10.57 333.41 8.93 333.41 6.85C333.41 4.76 334.67 3.12 336.92 3.12C338.45 3.12 339.46 3.85 339.93 4.98L341.04 4.98C340.45 3.29 338.94 2.10 336.84 2.10C334.05 2.10 332.36 4.21 332.36 6.85C332.36 9.48 334.05 11.59 336.84 11.59C338.94 11.59 340.45 10.40 341.04 8.71L339.93 8.71C339.46 9.84 338.45 10.57 336.92 10.57ZM356.05 2.21L356.05 6.33L350.66 6.33L350.66 2.21L349.61 2.21L349.61 11.48L350.66 11.48L350.66 7.35L356.05 7.35L356.05 11.48L357.10 11.48L357.10 2.21ZM367.42 2.21L366.37 2.21L366.37 11.48L367.42 11.48ZM383.63 2.21L383.63 10.01L377.90 2.21L376.68 2.21L376.68 11.48L377.73 11.48L377.73 3.65L383.46 11.48L384.68 11.48L384.68 2.21ZM397.92 2.10C395.14 2.10 393.36 4.21 393.36 6.85C393.36 9.48 395.07 11.59 397.89 11.59C399.57 11.59 400.67 10.74 401.25 9.84L401.25 11.48L402.22 11.48L402.22 6.55L397.87 6.55L397.87 7.50L401.25 7.50C401.25 9.44 399.66 10.57 397.98 10.57C395.72 10.57 394.41 8.93 394.41 6.85C394.41 4.76 395.75 3.12 398.01 3.12C399.42 3.12 400.43 3.74 400.99 4.73L402.14 4.73C401.45 3.18 399.91 2.10 397.92 2.10ZM421.05 2.21L421.05 11.48L427.15 11.48L427.15 10.47L422.10 10.47L422.10 2.21ZM436.56 2.21L435.51 2.21L435.51 11.48L436.56 11.48ZM452.30 2.21L449.09 10.29L445.89 2.21L444.74 2.21L448.49 11.48L449.69 11.48L453.45 2.21ZM468.44 3.22L468.44 2.21L461.62 2.21L461.62 11.48L468.44 11.48L468.44 10.47L462.67 10.47L462.67 7.35L467.82 7.35L467.82 6.33L462.67 6.33L462.67 3.22ZM477.64 4.65C477.64 4.03 478.00 3.08 480.10 3.08C481.80 3.08 482.58 3.82 482.69 4.75L483.77 4.75C483.69 3.36 482.57 2.10 480.10 2.10C477.78 2.10 476.62 3.15 476.62 4.66C476.62 7.84 482.96 6.69 482.96 8.96C482.96 10.05 481.98 10.60 480.41 10.60C478.80 10.60 477.50 10.05 477.43 8.71L476.34 8.71C476.48 10.37 477.60 11.59 480.34 11.59C482.62 11.59 484.01 10.64 484.01 8.92C484.01 5.68 477.64 6.80 477.64 4.65ZM492.37 10.05L492.37 11.48L493.72 11.48L493.72 10.05ZM493.43 8.92L493.70 2.21L492.39 2.21L492.66 8.92Z"></path></g></svg>