<svg data-v-423bf9ae="" xmlns="http://www.w3.org/2000/svg" viewBox="0 0 553.028564453125 60" class="font"><!----><!----><!----><g data-v-423bf9ae="" id="b171fd71-247d-4be8-a92f-2be25be79a3f" fill="black" transform="matrix(5.714285714285714,0,0,5.714285714285714,-4.628568998404944,-1.1999991238117218)"><path d="M2.66 10.50L2.66 0.21L0.81 0.77L0.81 10.50ZM10.82 7.38C10.82 7.34 10.84 6.93 10.84 6.61C10.84 4.27 9.34 3.01 7.39 3.01C5.49 3.01 3.86 4.26 3.86 6.86C3.86 9.46 5.47 10.71 7.39 10.71C9.09 10.71 10.21 9.95 10.71 8.46L8.99 8.09C8.79 8.75 8.23 9.17 7.50 9.17C6.54 9.17 5.78 8.61 5.71 7.38ZM7.35 4.55C8.27 4.55 8.89 5.17 8.95 6.08L5.74 6.08C5.87 5.07 6.61 4.55 7.35 4.55ZM16.30 9.70C16.34 9.97 16.41 10.32 16.62 10.50L18.48 10.50C18.23 10.23 18.06 9.76 18.06 9.02L18.06 6.02C18.06 3.89 16.90 3.01 15.02 3.01C13.65 3.01 12.25 3.53 11.89 5.21L13.50 5.70C13.66 5.04 14.07 4.51 14.91 4.51C15.82 4.51 16.21 5.04 16.21 5.73L16.21 5.92C15.85 6.09 15.29 6.19 14.52 6.27C12.80 6.47 11.66 7.07 11.66 8.64C11.66 10.02 12.78 10.71 14.11 10.71C14.98 10.71 15.67 10.46 16.30 9.70ZM16.21 8.30C15.93 8.79 15.25 9.31 14.50 9.31C13.89 9.31 13.54 9.02 13.54 8.51C13.51 7.81 14.08 7.60 14.76 7.48C15.47 7.34 15.95 7.21 16.21 7.10ZM21.62 10.50L21.62 7.06C21.62 5.64 22.22 4.75 23.42 4.75C23.86 4.75 24.15 4.87 24.43 5.03L24.77 3.39C24.43 3.12 24.04 3.01 23.48 3.01C22.47 3.01 21.95 3.50 21.49 4.48L21.49 3.22L19.77 3.22L19.77 10.50ZM27.54 10.50L27.54 6.54C27.54 5.24 28.20 4.56 29.05 4.56C29.95 4.56 30.28 5.12 30.28 6.09L30.28 10.50L32.13 10.50L32.13 6.03C32.13 4.30 31.54 3.01 29.53 3.01C28.62 3.01 27.94 3.37 27.41 4.27L27.41 3.22L25.69 3.22L25.69 10.50ZM36.97 10.50L38.39 5.40L39.69 10.50L41.36 10.50L43.62 3.22L41.85 3.22L40.47 8.25L39.20 3.22L37.53 3.22L36.23 8.40L34.94 3.22L33.08 3.22L35.28 10.50ZM46.42 2.18L46.42 0.42L44.58 0.42L44.58 2.18ZM46.42 10.50L46.42 3.22L44.58 3.22L44.58 10.50ZM51.63 8.95C51.41 9.02 51.20 9.03 51.06 9.03C50.40 9.03 50.40 8.58 50.40 7.95L50.40 4.68L51.74 4.68L51.74 3.22L50.40 3.22L50.40 0.99L48.55 1.60L48.55 3.22L47.52 3.22L47.52 4.68L48.55 4.68L48.55 8.37C48.55 9.80 49.03 10.64 50.55 10.64C50.82 10.64 51.48 10.57 51.76 10.43ZM55.01 10.50L55.01 6.54C55.01 5.24 55.66 4.56 56.52 4.56C57.41 4.56 57.75 5.12 57.75 6.09L57.75 10.50L59.60 10.50L59.60 6.03C59.60 4.30 59.01 3.01 56.99 3.01C56.08 3.01 55.47 3.36 55.01 4.16L55.01 0.42L53.16 0.42L53.16 10.50ZM68.98 10.50L68.98 8.96L61.19 8.96L61.19 10.50ZM72.42 10.50L72.42 7.06C72.42 5.64 73.02 4.75 74.23 4.75C74.66 4.75 74.96 4.87 75.24 5.03L75.57 3.39C75.24 3.12 74.84 3.01 74.28 3.01C73.28 3.01 72.76 3.50 72.30 4.48L72.30 3.22L70.57 3.22L70.57 10.50ZM75.94 6.86C75.94 9.46 77.52 10.71 79.48 10.71C81.45 10.71 83.03 9.46 83.03 6.86C83.03 4.26 81.45 3.01 79.48 3.01C77.52 3.01 75.94 4.26 75.94 6.86ZM77.78 6.86C77.78 5.32 78.47 4.55 79.48 4.55C80.49 4.55 81.19 5.32 81.19 6.86C81.19 8.41 80.49 9.17 79.48 9.17C78.47 9.17 77.78 8.41 77.78 6.86ZM83.82 8.40C83.94 9.77 85.06 10.71 86.84 10.71C88.49 10.71 89.84 9.98 89.84 8.37C89.84 6.92 88.79 6.41 87.96 6.22L86.20 5.81C85.82 5.73 85.57 5.52 85.57 5.21C85.57 4.69 86.06 4.45 86.77 4.45C87.42 4.45 87.93 4.72 88.05 5.38L89.64 5.11C89.57 3.96 88.56 3.01 86.83 3.01C85.33 3.01 83.97 3.65 83.97 5.28C83.97 6.48 84.80 7.10 85.75 7.32L87.50 7.73C87.92 7.84 88.19 8.04 88.19 8.44C88.19 9.10 87.50 9.27 86.88 9.27C85.97 9.27 85.50 8.81 85.41 8.13L83.82 8.40ZM97.58 7.38C97.58 7.34 97.59 6.93 97.59 6.61C97.59 4.27 96.10 3.01 94.15 3.01C92.25 3.01 90.62 4.26 90.62 6.86C90.62 9.46 92.23 10.71 94.15 10.71C95.84 10.71 96.96 9.95 97.47 8.46L95.75 8.09C95.55 8.75 94.99 9.17 94.26 9.17C93.30 9.17 92.54 8.61 92.47 7.38ZM94.11 4.55C95.03 4.55 95.65 5.17 95.70 6.08L92.50 6.08C92.62 5.07 93.37 4.55 94.11 4.55Z"></path></g><!----><!----></svg>